<svg id="visual" viewBox="0 0 900 600" width="900" height="600" xmlns="http://www.w3.org/2000/svg" xmlns:xlink="http://www.w3.org/1999/xlink" version="1.1"><rect width="900" height="600" fill="#ae6e4e"></rect><g><g transform="translate(593 303)"><path d="M80.7 -22.2C93.5 13.1 85.1 59.4 56.8 80.5C28.5 101.7 -19.9 97.8 -54.1 73.2C-88.3 48.6 -108.4 3.4 -97 -29.9C-85.7 -63.3 -42.8 -84.8 -4.4 -83.3C34 -81.9 67.9 -57.5 80.7 -22.2Z" fill="none" stroke="#C7AD7F" stroke-width="20"></path></g><g transform="translate(231 108)"><path d="M71.2 -23.2C79.6 2.7 65 36 40.4 53.3C15.9 70.5 -18.6 71.8 -42.2 55.3C-65.7 38.8 -78.4 4.6 -69.5 -21.9C-60.7 -48.4 -30.4 -67.1 0.5 -67.3C31.4 -67.5 62.8 -49 71.2 -23.2Z" fill="none" stroke="#C7AD7F" stroke-width="20"></path></g><g transform="translate(130 570)"><path d="M52.8 -16.8C58.8 1.1 47.2 25.1 28.9 38.1C10.5 51.1 -14.7 53 -32 41.1C-49.3 29.3 -58.6 3.6 -51.9 -15.3C-45.3 -34.2 -22.6 -46.3 0.4 -46.4C23.4 -46.5 46.9 -34.7 52.8 -16.8Z" fill="none" stroke="#C7AD7F" stroke-width="20"></path></g><g transform="translate(865 16)"><path d="M67.3 -23.1C74.9 1.3 60.1 31.8 36.6 48.4C13.1 65 -19 67.7 -40.9 52.7C-62.7 37.6 -74.2 4.9 -65.7 -20.9C-57.2 -46.8 -28.6 -65.7 0.7 -65.9C29.9 -66.1 59.8 -47.6 67.3 -23.1Z" fill="none" stroke="#C7AD7F" stroke-width="20"></path></g><g transform="translate(878 391)"><path d="M55.6 -18.1C63.1 5.1 54.2 33.6 36.5 45.4C18.7 57.1 -7.7 52 -26.6 37.9C-45.6 23.9 -57 0.8 -51.4 -19.8C-45.7 -40.5 -22.8 -58.7 0.6 -58.9C24 -59.1 48.1 -41.3 55.6 -18.1Z" fill="none" stroke="#C7AD7F" stroke-width="20"></path></g></g></svg>