<svg id="visual" viewBox="0 0 960 540" width="960" height="540" xmlns="http://www.w3.org/2000/svg" xmlns:xlink="http://www.w3.org/1999/xlink" version="1.1"><rect x="0" y="0" width="960" height="540" fill="#ffffff"></rect><path d="M0 252L137 252L274 257L411 196L549 194L686 231L823 248L960 172L960 0L823 0L686 0L549 0L411 0L274 0L137 0L0 0Z" fill="#7a7cd7"></path><path d="M0 217L137 218L274 151L411 148L549 136L686 201L823 184L960 148L960 0L823 0L686 0L549 0L411 0L274 0L137 0L0 0Z" fill="#6565c1"></path><path d="M0 168L137 163L274 166L411 123L549 130L686 169L823 119L960 171L960 0L823 0L686 0L549 0L411 0L274 0L137 0L0 0Z" fill="#504fac"></path><path d="M0 98L137 84L274 68L411 99L549 61L686 121L823 105L960 115L960 0L823 0L686 0L549 0L411 0L274 0L137 0L0 0Z" fill="#3b3a97"></path><path d="M0 42L137 36L274 43L411 31L549 57L686 42L823 67L960 44L960 0L823 0L686 0L549 0L411 0L274 0L137 0L0 0Z" fill="#242582"></path></svg>