<svg id="visual" viewBox="0 0 900 600" width="900" height="600" xmlns="http://www.w3.org/2000/svg" xmlns:xlink="http://www.w3.org/1999/xlink" version="1.1"><rect x="0" y="0" width="900" height="600" fill="#f8f1dc"></rect><path d="M0 331L21.5 339.5C43 348 86 365 128.8 363.3C171.7 361.7 214.3 341.3 257.2 340.5C300 339.7 343 358.3 385.8 380.3C428.7 402.3 471.3 427.7 514.2 410C557 392.3 600 331.7 642.8 311.5C685.7 291.3 728.3 311.7 771.2 316.5C814 321.3 857 310.7 878.5 305.3L900 300L900 601L878.5 601C857 601 814 601 771.2 601C728.3 601 685.7 601 642.8 601C600 601 557 601 514.2 601C471.3 601 428.7 601 385.8 601C343 601 300 601 257.2 601C214.3 601 171.7 601 128.8 601C86 601 43 601 21.5 601L0 601Z" fill="#a57a5a" stroke-linecap="round" stroke-linejoin="miter"></path></svg>