<svg id="visual" viewBox="0 0 900 600" width="900" height="600" xmlns="http://www.w3.org/2000/svg" xmlns:xlink="http://www.w3.org/1999/xlink" version="1.1"><path d="M0 97L82 97L82 55L164 55L164 85L245 85L245 79L327 79L327 55L409 55L409 79L491 79L491 79L573 79L573 85L655 85L655 37L736 37L736 97L818 97L818 67L900 67L900 97L900 0L900 0L818 0L818 0L736 0L736 0L655 0L655 0L573 0L573 0L491 0L491 0L409 0L409 0L327 0L327 0L245 0L245 0L164 0L164 0L82 0L82 0L0 0Z" fill="#f8f1dc"></path><path d="M0 157L82 157L82 187L164 187L164 223L245 223L245 193L327 193L327 163L409 163L409 139L491 139L491 163L573 163L573 199L655 199L655 223L736 223L736 163L818 163L818 187L900 187L900 187L900 95L900 65L818 65L818 95L736 95L736 35L655 35L655 83L573 83L573 77L491 77L491 77L409 77L409 53L327 53L327 77L245 77L245 83L164 83L164 53L82 53L82 95L0 95Z" fill="#e1d3b8"></path><path d="M0 205L82 205L82 289L164 289L164 301L245 301L245 253L327 253L327 283L409 283L409 247L491 247L491 229L573 229L573 271L655 271L655 265L736 265L736 271L818 271L818 247L900 247L900 271L900 185L900 185L818 185L818 161L736 161L736 221L655 221L655 197L573 197L573 161L491 161L491 137L409 137L409 161L327 161L327 191L245 191L245 221L164 221L164 185L82 185L82 155L0 155Z" fill="#ccb596"></path><path d="M0 361L82 361L82 463L164 463L164 451L245 451L245 427L327 427L327 403L409 403L409 433L491 433L491 391L573 391L573 511L655 511L655 445L736 445L736 487L818 487L818 433L900 433L900 355L900 269L900 245L818 245L818 269L736 269L736 263L655 263L655 269L573 269L573 227L491 227L491 245L409 245L409 281L327 281L327 251L245 251L245 299L164 299L164 287L82 287L82 203L0 203Z" fill="#b89777"></path><path d="M0 601L82 601L82 601L164 601L164 601L245 601L245 601L327 601L327 601L409 601L409 601L491 601L491 601L573 601L573 601L655 601L655 601L736 601L736 601L818 601L818 601L900 601L900 601L900 353L900 431L818 431L818 485L736 485L736 443L655 443L655 509L573 509L573 389L491 389L491 431L409 431L409 401L327 401L327 425L245 425L245 449L164 449L164 461L82 461L82 359L0 359Z" fill="#a57a5a"></path></svg>