<svg id="visual" viewBox="0 0 900 600" width="900" height="600" xmlns="http://www.w3.org/2000/svg" xmlns:xlink="http://www.w3.org/1999/xlink" version="1.1"><rect x="0" y="0" width="900" height="600" fill="#a57a5a"></rect><path d="M0 285L21.5 308.7C43 332.3 86 379.7 128.8 381.5C171.7 383.3 214.3 339.7 257.2 320.5C300 301.3 343 306.7 385.8 312.3C428.7 318 471.3 324 514.2 318.7C557 313.3 600 296.7 642.8 319C685.7 341.3 728.3 402.7 771.2 427.2C814 451.7 857 439.3 878.5 433.2L900 427L900 601L878.5 601C857 601 814 601 771.2 601C728.3 601 685.7 601 642.8 601C600 601 557 601 514.2 601C471.3 601 428.7 601 385.8 601C343 601 300 601 257.2 601C214.3 601 171.7 601 128.8 601C86 601 43 601 21.5 601L0 601Z" fill="#C7AD7F" stroke-linecap="round" stroke-linejoin="miter"></path></svg>