<svg xmlns="http://www.w3.org/2000/svg" viewBox="0 0 800 500" preserveAspectRatio="xMidYMid slice">
  <defs>
    <linearGradient id="g" x1="0" y1="0" x2="1" y2="1">
      <stop offset="0" stop-color="#1a0b3d"/>
      <stop offset="0.5" stop-color="#3d1b6b"/>
      <stop offset="1" stop-color="#0b1220"/>
    </linearGradient>
    <linearGradient id="a" x1="0" y1="0" x2="1" y2="0">
      <stop offset="0" stop-color="#22d3ee"/>
      <stop offset="1" stop-color="#8b5cf6"/>
    </linearGradient>
    <filter id="blur"><feGaussianBlur stdDeviation="30"/></filter>
  </defs>
  <rect width="800" height="500" fill="url(#g)"/>
  <circle cx="640" cy="120" r="120" fill="#22d3ee" opacity="0.35" filter="url(#blur)"/>
  <circle cx="160" cy="420" r="140" fill="#d946ef" opacity="0.28" filter="url(#blur)"/>
  <g transform="translate(60,60)" fill="none" stroke="url(#a)" stroke-width="2" opacity="0.5">
    <path d="M0,300 L80,260 L160,290 L240,220 L320,250 L400,180 L480,200 L560,140 L640,170 L680,120"/>
    <circle cx="80" cy="260" r="4" fill="#22d3ee"/>
    <circle cx="240" cy="220" r="4" fill="#22d3ee"/>
    <circle cx="400" cy="180" r="4" fill="#8b5cf6"/>
    <circle cx="560" cy="140" r="4" fill="#d946ef"/>
    <circle cx="680" cy="120" r="6" fill="#ffffff"/>
  </g>
  <g transform="translate(60,340)" font-family="Space Grotesk, Inter, sans-serif" fill="#e8ecf7">
    <text x="0" y="0" font-size="48" font-weight="700">HedgeLock</text>
    <text x="0" y="36" font-size="18" fill="#a4a9bf">Cross-platform sports betting simulator</text>
  </g>
  <g transform="translate(660,60)" fill="#22d3ee">
    <rect x="-50" y="-18" width="100" height="28" rx="14" fill="#22d3ee" opacity="0.18" stroke="#22d3ee" stroke-opacity="0.6"/>
    <text x="0" y="1" text-anchor="middle" font-family="JetBrains Mono, monospace" font-size="12" fill="#22d3ee">LIVE</text>
  </g>
</svg>
