<svg xmlns="http://www.w3.org/2000/svg" viewBox="0 0 800 500" preserveAspectRatio="xMidYMid slice">
  <defs>
    <linearGradient id="g" x1="0" y1="0" x2="1" y2="1">
      <stop offset="0" stop-color="#1a0b2a"/>
      <stop offset="1" stop-color="#0b0620"/>
    </linearGradient>
    <filter id="blur"><feGaussianBlur stdDeviation="30"/></filter>
  </defs>
  <rect width="800" height="500" fill="url(#g)"/>
  <circle cx="640" cy="120" r="140" fill="#d946ef" opacity="0.25" filter="url(#blur)"/>
  <circle cx="200" cy="380" r="130" fill="#8b5cf6" opacity="0.22" filter="url(#blur)"/>
  <g transform="translate(420,140)" shape-rendering="crispEdges">
    <rect x="0" y="0" width="60" height="60" fill="#7b5f3a"/>
    <rect x="60" y="0" width="60" height="60" fill="#8b6f46"/>
    <rect x="120" y="0" width="60" height="60" fill="#6a5230"/>
    <rect x="0" y="60" width="60" height="60" fill="#3c5e2e"/>
    <rect x="60" y="60" width="60" height="60" fill="#467238"/>
    <rect x="120" y="60" width="60" height="60" fill="#2f4a23"/>
    <rect x="0" y="-20" width="180" height="20" fill="#2a7d2a"/>
    <rect x="40" y="-30" width="30" height="10" fill="#2a7d2a"/>
    <rect x="110" y="-28" width="30" height="8" fill="#2a7d2a"/>
  </g>
  <g transform="translate(80,100)" shape-rendering="crispEdges">
    <rect x="0" y="0" width="30" height="30" fill="#e0b892" stroke="#111" stroke-width="1"/>
    <rect x="6" y="8" width="6" height="6" fill="#111"/>
    <rect x="18" y="8" width="6" height="6" fill="#111"/>
    <rect x="8" y="20" width="14" height="4" fill="#111"/>
  </g>
  <g transform="translate(80,380)" font-family="Space Grotesk, Inter, sans-serif" fill="#e8ecf7">
    <text x="0" y="0" font-size="42" font-weight="700">ModWith50Perks</text>
    <text x="0" y="30" font-size="16" fill="#a4a9bf">Custom Minecraft mod &amp; modpack</text>
  </g>
</svg>
