<svg xmlns="http://www.w3.org/2000/svg" viewBox="0 0 800 500" preserveAspectRatio="xMidYMid slice">
  <defs>
    <linearGradient id="g" x1="0" y1="0" x2="1" y2="1">
      <stop offset="0" stop-color="#08131f"/>
      <stop offset="1" stop-color="#0b2540"/>
    </linearGradient>
    <filter id="blur"><feGaussianBlur stdDeviation="28"/></filter>
  </defs>
  <rect width="800" height="500" fill="url(#g)"/>
  <circle cx="620" cy="140" r="130" fill="#22d3ee" opacity="0.3" filter="url(#blur)"/>
  <g transform="translate(80,80)" opacity="0.75">
    <g stroke="#22d3ee" stroke-width="1.5" fill="none">
      <path d="M0,260 Q120,80 240,180 T480,140 T640,60" stroke-dasharray="6 4"/>
    </g>
    <g fill="#22d3ee">
      <circle cx="50" cy="220" r="4"/>
      <circle cx="140" cy="180" r="4"/>
      <circle cx="230" cy="200" r="4"/>
      <circle cx="320" cy="150" r="4"/>
      <circle cx="420" cy="170" r="4"/>
      <circle cx="520" cy="110" r="4"/>
      <circle cx="600" cy="90" r="5"/>
    </g>
    <g fill="#8b5cf6">
      <circle cx="80" cy="260" r="5"/>
      <circle cx="200" cy="240" r="5"/>
      <circle cx="360" cy="220" r="5"/>
      <circle cx="460" cy="200" r="5"/>
      <circle cx="560" cy="180" r="5"/>
    </g>
  </g>
  <g transform="translate(80,370)" font-family="Space Grotesk, Inter, sans-serif" fill="#e8ecf7">
    <text x="0" y="0" font-size="42" font-weight="700">MLB Whiff %</text>
    <text x="0" y="30" font-size="16" fill="#a4a9bf">Pitch-level data analysis in Python</text>
  </g>
</svg>
