<svg xmlns="http://www.w3.org/2000/svg" viewBox="0 0 800 500" preserveAspectRatio="xMidYMid slice">
  <defs>
    <linearGradient id="g" x1="0" y1="0" x2="1" y2="1">
      <stop offset="0" stop-color="#2a0b1d"/>
      <stop offset="1" stop-color="#0a0612"/>
    </linearGradient>
    <filter id="blur"><feGaussianBlur stdDeviation="30"/></filter>
  </defs>
  <rect width="800" height="500" fill="url(#g)"/>
  <circle cx="640" cy="140" r="140" fill="#f43f5e" opacity="0.3" filter="url(#blur)"/>
  <g transform="translate(80,220)" fill="#f43f5e">
    <rect x="0" y="-10" width="10" height="20" rx="2"/>
    <rect x="20" y="-20" width="10" height="40" rx="2"/>
    <rect x="40" y="-30" width="10" height="60" rx="2"/>
    <rect x="60" y="-45" width="10" height="90" rx="2"/>
    <rect x="80" y="-60" width="10" height="120" rx="2" fill="#d946ef"/>
    <rect x="100" y="-50" width="10" height="100" rx="2"/>
    <rect x="120" y="-35" width="10" height="70" rx="2"/>
    <rect x="140" y="-55" width="10" height="110" rx="2" fill="#d946ef"/>
    <rect x="160" y="-70" width="10" height="140" rx="2" fill="#d946ef"/>
    <rect x="180" y="-60" width="10" height="120" rx="2"/>
    <rect x="200" y="-40" width="10" height="80" rx="2"/>
    <rect x="220" y="-25" width="10" height="50" rx="2"/>
    <rect x="240" y="-15" width="10" height="30" rx="2"/>
    <rect x="260" y="-30" width="10" height="60" rx="2"/>
    <rect x="280" y="-50" width="10" height="100" rx="2"/>
    <rect x="300" y="-65" width="10" height="130" rx="2" fill="#d946ef"/>
    <rect x="320" y="-45" width="10" height="90" rx="2"/>
    <rect x="340" y="-30" width="10" height="60" rx="2"/>
    <rect x="360" y="-20" width="10" height="40" rx="2"/>
    <rect x="380" y="-10" width="10" height="20" rx="2"/>
  </g>
  <g transform="translate(560,70)" font-family="JetBrains Mono, monospace" text-anchor="middle" fill="#f43f5e">
    <text x="0" y="0" font-size="52" font-weight="700">812</text>
    <text x="0" y="22" font-size="11" fill="#a4a9bf" font-family="Space Grotesk, sans-serif">SALT SCORE</text>
  </g>
  <g transform="translate(80,380)" font-family="Space Grotesk, Inter, sans-serif" fill="#e8ecf7">
    <text x="0" y="0" font-size="42" font-weight="700">Salty</text>
    <text x="0" y="30" font-size="16" fill="#a4a9bf">Voice-driven emotion scoring for gamers</text>
  </g>
</svg>
