<svg xmlns="http://www.w3.org/2000/svg" viewBox="0 0 800 500" preserveAspectRatio="xMidYMid slice">
  <defs>
    <linearGradient id="g" x1="0" y1="0" x2="1" y2="1">
      <stop offset="0" stop-color="#0a1a0a"/>
      <stop offset="0.5" stop-color="#14321f"/>
      <stop offset="1" stop-color="#05060a"/>
    </linearGradient>
    <filter id="blur"><feGaussianBlur stdDeviation="30"/></filter>
  </defs>
  <rect width="800" height="500" fill="url(#g)"/>
  <circle cx="600" cy="150" r="150" fill="#a3e635" opacity="0.35" filter="url(#blur)"/>
  <circle cx="200" cy="400" r="140" fill="#22d3ee" opacity="0.25" filter="url(#blur)"/>
  <g transform="translate(80,80)" fill="none" stroke="#a3e635" stroke-width="2" opacity="0.6">
    <path d="M0,300 L60,280 L120,240 L180,260 L240,200 L300,210 L360,150 L420,130 L480,90 L540,100 L600,60 L640,40"/>
    <path d="M0,300 L60,280 L120,240 L180,260 L240,200 L300,210 L360,150 L420,130 L480,90 L540,100 L600,60 L640,40 L640,340 L0,340 Z" fill="#a3e635" fill-opacity="0.1" stroke="none"/>
  </g>
  <g transform="translate(80,360)" font-family="Space Grotesk, Inter, sans-serif" fill="#e8ecf7">
    <text x="0" y="0" font-size="46" font-weight="700">XRP Sniper</text>
    <text x="0" y="32" font-size="18" fill="#a4a9bf">$250,000+ generated · 6-month run</text>
  </g>
  <g transform="translate(700,90)" font-family="JetBrains Mono, monospace" fill="#a3e635" text-anchor="middle">
    <text x="0" y="0" font-size="44" font-weight="700">+250k</text>
    <text x="0" y="22" font-size="12" fill="#e8ecf7" opacity="0.7">USD revenue</text>
  </g>
</svg>
